<?xml version="1.0" encoding="utf-8"?>
<!-- Generator: Adobe Illustrator 21.1.0, SVG Export Plug-In . SVG Version: 6.00 Build 0)  -->
<svg version="1.1" id="Layer_1" xmlns="http://www.w3.org/2000/svg" xmlns:xlink="http://www.w3.org/1999/xlink" x="0px" y="0px"
	 viewBox="0 0 139 139" style="enable-background:new 0 0 139 139;" xml:space="preserve">
<style type="text/css">
	.st0{fill:none;enable-background:new    ;}
	.st1{fill:#FFFFFF;}
</style>
<path class="st0" d="z"/>
<g id="Layer_2">
	<g>
		<path class="st1" d="M69.5,15.8c29.7,0,53.7,24.1,53.7,53.7s-24.1,53.7-53.7,53.7S15.8,99.2,15.8,69.5S39.8,15.8,69.5,15.8
			 M69.5,6.3c-16.9,0-32.7,6.6-44.7,18.5S6.3,52.6,6.3,69.5s6.6,32.7,18.5,44.7s27.8,18.5,44.7,18.5s32.7-6.6,44.7-18.5
			s18.5-27.8,18.5-44.7s-6.6-32.7-18.5-44.7S86.4,6.3,69.5,6.3L69.5,6.3z"/>
	</g>
</g>
</svg>
