<?xml version="1.0" encoding="utf-8"?>
<!-- Generator: Adobe Illustrator 21.1.0, SVG Export Plug-In . SVG Version: 6.00 Build 0)  -->
<svg version="1.1" xmlns="http://www.w3.org/2000/svg" xmlns:xlink="http://www.w3.org/1999/xlink" x="0px" y="0px"
	 viewBox="0 0 278 278" style="enable-background:new 0 0 278 278;" xml:space="preserve">
<style type="text/css">
	.st0{fill:none;enable-background:new    ;}
	.st1{fill:#FFFFFF;}
</style>
<g id="Layer_1">
	<path class="st0" d="z"/>
</g>
<g id="Layer_2">
	<g>
		<path class="st1" d="M139,31c59.6,0,108,48.4,108,108s-48.4,108-108,108S31,198.6,31,139S79.4,31,139,31 M139,12
			c-33.9,0-65.8,13.2-89.8,37.2C25.2,73.2,12,105.1,12,139s13.2,65.8,37.2,89.8c24,24,55.9,37.2,89.8,37.2s65.8-13.2,89.8-37.2
			c24-24,37.2-55.9,37.2-89.8s-13.2-65.8-37.2-89.8C204.8,25.2,172.9,12,139,12L139,12z"/>
	</g>
</g>
</svg>
